<svg xmlns="http://www.w3.org/2000/svg" viewBox="0 0 393.47 64.37"><defs><style>.cls-1{fill:#414042;}</style></defs><title>Huxley_Logo_Final</title><g id="Layer_1_copy" data-name="Layer 1 copy"><text/></g><g id="Layer_1" data-name="Layer 1"><text/><path class="cls-1" d="M144.12,62.8h8l10.65-16.89-4-6.55ZM192.59,0h-8L169.51,23.63,155.14,0h-10l2.32,3.86.07,0,32,53.05,0,0,3.6,5.9h10L173.49,30.31ZM112.27,39.93q0,9.68-3,13.72T99.24,57.71q-7.26,0-10.59-4.31T85.33,39.63V0H76.85V39.55q0,12.77,5.35,18.79t16.7,6q8.76,0,13.77-4.16a17.63,17.63,0,0,0,5.54-7.77q1.53-4.41,1.53-12.64V0h-7.47ZM36.92,26.48H8.48V0H0V62.8H8.48V33.14H36.92V62.8H45.4V0H36.92ZM228,0h-8.48V62.8h35.38V56.14H228ZM376.43,0,359.72,28.39,344.19,0h-9.68l19.95,36.58V62.8h8.48V36.41L384.31,0ZM288.64,33.39h20.88V26.82H288.64V6.66h24.92V0h-33.4V62.8H315.3V56.14H288.64Z"/></g></svg>